<svg xmlns="http://www.w3.org/2000/svg" xml:space="preserve" width="2000" height="385" data-id="lg_Bv4UzxhO9FwXqGBnkT" data-version="1" viewBox="0 0 2000 385"><g data-padding="20"><g transform="translate(10 6.875)scale(.96429)"><rect width="665.527" height="123.17" x="675.123" y="-61.805" fill="none" rx="0" ry="0" transform="matrix(.74 0 0 .74 272.06 339.72)"/><path fill="#8abe53" d="M807.276 327.597h15.65q2.11 0 4.39.89 2.27.89 4.38 2.36h-.09q2.11 1.46 3.25 3.97 1.14 2.52 1.14 5.76v11.11q0 6.58-4.39 9.82-2.1 1.54-4.34 2.39-2.23.86-4.34.86h-17.68q-2.11 0-4.34-.86-2.23-.85-4.34-2.39-4.38-3.24-4.38-9.82v-5.35q0-3.81 4.78-3.81 4.87 0 4.87 3.81v4.71q0 2.1 1.22 3.81 1.22 1.7 4.22 1.7h13.63q3 0 4.21-1.7 1.22-1.71 1.22-3.81v-9.82q0-2.03-1.22-3.77-1.21-1.75-4.21-1.75h-15.66q-4.22 0-8.68-3.08-4.38-3.41-4.38-9.82v-9.65q0-3.25 1.13-5.72 1.14-2.47 3.25-4.02h-.08q2.11-1.37 4.38-2.27 2.27-.89 4.38-.89h17.68q2.11 0 4.39.89 2.27.9 4.38 2.27h-.09q2.11 1.55 3.25 4.02t1.14 5.72v4.79q0 3.81-4.87 3.81-4.79 0-4.79-3.81v-4.06q0-2.03-1.22-3.73-1.21-1.71-4.21-1.71h-13.63q-3 0-4.22 1.71-1.22 1.7-1.22 3.73v8.27q0 2.11 1.22 3.78 1.22 1.66 4.22 1.66m70.26 13.22h-11.19q-1.38 0-2.15-1.09-.77-1.1-.77-2.96 0-4.14 3.4-4.14h8.6q3 0 4.26-1.7 1.26-1.71 1.26-3.74v-13.3q0-2.03-1.26-3.73-1.26-1.71-4.26-1.71h-17.03v52.98q0 3.89-4.87 3.89-4.71 0-4.71-3.89v-56.3q0-2.92 1.46-3.9 1.46-.97 3.57-.97h23.69q2.03 0 4.3.89 2.27.9 4.38 2.27h-.08q2.11 1.55 3.25 4.02 1.13 2.47 1.13 5.72v14.68q0 6.57-4.38 9.82-2.11 1.54-4.3 2.35t-4.3.81m60.2 23.94h-29.69q-3.01 0-4.06-1.55-1.06-1.54-1.06-3.4v-54.68q0-1.87 1.06-3.37 1.05-1.5 4.06-1.5h28.23q3 0 3.16 4.06.16 4.13-3.16 4.13h-23.77v48.11h25.23q3 0 3.08 3.98.16 4.22-3.08 4.22m-4.46-33.59q0 2.84-1.99 4.79-1.99 1.94-4.83 1.94-2.76 0-4.7-1.94-1.95-1.95-1.95-4.79t1.95-4.79q1.94-1.94 4.7-1.94 2.84 0 4.83 1.94 1.99 1.95 1.99 4.79m52.23 16.47v-43.89q0-3.9 4.79-3.9 4.78 0 4.78 3.9v55.98q0 2.84-3 4.13h.08q-1.29.57-2.75.9-1.46.32-2.84.32-1.06 0-2.19-.2-1.14-.21-2.15-.65-1.02-.45-1.87-1.22t-1.34-1.9l-17.6-43.89-2.19.24v43.81q0 3.89-4.87 3.89-4.79 0-4.79-3.89v-55.9q0-3.32 2.92-4.46 2.68-1.06 5.68-1.06 2.11 0 4.26.86 2.15.85 3.29 3.2l17.52 43.97Zm39.28 8.92h11.03q3 0 4.22-1.7 1.22-1.71 1.22-3.81v-37.16q0-2.03-1.22-3.73-1.22-1.71-4.22-1.71h-18.98l-.08 52.9q0 1.78-1.38 2.84-1.38 1.05-3.41 1.05-4.79 0-4.79-3.89v-56.22q0-2.92 1.5-3.9 1.5-.97 3.61-.97h25.56q2.11 0 4.38.89 2.27.9 4.38 2.27h-.08q2.11 1.55 3.24 4.02 1.14 2.47 1.14 5.72v38.53q0 6.58-4.38 9.82-2.11 1.54-4.34 2.39-2.23.86-4.34.86h-13.63q-1.38 0-2.15-1.14t-.77-3q0-4.06 3.49-4.06m85.67-10.14 10.46-43.48-.08.08q.49-1.79 1.91-2.6t3.77-.4q2.35.4 3.37 1.46 1.01 1.05.44 2.92l-14.6 58.17v-.09q-.41 1.38-1.83 2.11t-2.96.73q-1.78 0-3.36-.52-1.59-.53-1.99-2.15l.08.08-9.98-39.59h-2.19l-9.9 39.51q-.4 1.38-2.03 2.02-1.62.65-3.32.65-2.11 0-3.37-.6-1.26-.61-1.66-2.15l.08.08-14.6-58.25q-.41-1.62.73-2.8 1.13-1.18 3.24-1.58 4.55-.73 5.52 3l-.08-.08 3.65 14.68q.73 2.92 1.46 5.96.73 3.05 1.62 6.49.89 3.45 1.95 7.51 1.05 4.05 2.35 9.08l10.39-43.8q.4-1.79 1.86-2.36 1.46-.56 3.25-.56 1.62 0 3.16.6 1.54.61 1.95 2.48Zm37.23-42.67v57.52q0 3.89-4.86 3.89-4.79 0-4.79-3.89v-57.52q0-3.9 4.79-3.9 4.86 0 4.86 3.9m28.06 23.85h15.66q2.11 0 4.38.89t4.38 2.36h-.08q2.11 1.46 3.25 3.97 1.13 2.52 1.13 5.76v11.11q0 6.58-4.38 9.82-2.11 1.54-4.34 2.39-2.23.86-4.34.86h-17.69q-2.1 0-4.34-.86-2.23-.85-4.34-2.39-4.38-3.24-4.38-9.82v-5.35q0-3.81 4.79-3.81 4.87 0 4.87 3.81v4.71q0 2.1 1.21 3.81 1.22 1.7 4.22 1.7h13.63q3 0 4.22-1.7 1.22-1.71 1.22-3.81v-9.82q0-2.03-1.22-3.77-1.22-1.75-4.22-1.75h-15.66q-4.21 0-8.68-3.08-4.38-3.41-4.38-9.82v-9.65q0-3.25 1.14-5.72 1.13-2.47 3.24-4.02h-.08q2.11-1.37 4.38-2.27 2.28-.89 4.38-.89h17.69q2.11 0 4.38.89 2.27.9 4.38 2.27h-.08q2.11 1.55 3.25 4.02 1.13 2.47 1.13 5.72v4.79q0 3.81-4.87 3.81-4.78 0-4.78-3.81v-4.06q0-2.03-1.22-3.73-1.22-1.71-4.22-1.71h-13.63q-3 0-4.22 1.71-1.21 1.7-1.21 3.73v8.27q0 2.11 1.21 3.78 1.22 1.66 4.22 1.66m76.35 37.16h-29.69q-3 0-4.06-1.55-1.05-1.54-1.05-3.4v-54.68q0-1.87 1.05-3.37 1.06-1.5 4.06-1.5h28.23q3 0 3.17 4.06.16 4.13-3.17 4.13h-23.77v48.11h25.23q3 0 3.09 3.98.16 4.22-3.09 4.22m-4.46-33.59q0 2.84-1.99 4.79-1.98 1.94-4.82 1.94-2.76 0-4.71-1.94-1.95-1.95-1.95-4.79t1.95-4.79q1.95-1.94 4.71-1.94 2.84 0 4.82 1.94 1.99 1.95 1.99 4.79M1134.02 80.707a9.28 9.28 0 1 0-15.87 9.28 40.83 40.83 0 0 1 6.126 21.25v3.99a41.76 41.76 0 0 1-6.774 18.56l-1.3 1.856a83.5 83.5 0 0 1-26.262 21.994h-.928l-.928.464a157.76 157.76 0 0 1-75.168 18.096 157.76 157.76 0 0 1-75.168-17.446l-.928-.464-1.206-.65a83.5 83.5 0 0 1-25.706-22.086l-1.114-1.578a42.7 42.7 0 0 1-6.96-18.56l-.278-4.176c0-35.17 51.04-64.96 111.36-64.96a186 186 0 0 1 19.58 1.02 9.331 9.331 0 1 0 1.95-18.56 204 204 0 0 0-21.53-1.02c-72.848 0-129.92 37.12-129.92 83.52v61.526a64.96 64.96 0 0 0 11.414 29.232 97.4 97.4 0 0 0 31.645 27.84 176.3 176.3 0 0 0 86.86 20.602 176.3 176.3 0 0 0 86.583-20.973 102.1 102.1 0 0 0 31.645-27.84 64.96 64.96 0 0 0 11.693-28.767v-61.62a58.46 58.46 0 0 0-8.816-30.53"/><path fill="#8abe53" d="M1022.196 64.837a9.28 9.28 0 0 0-18.56 0 27.84 27.84 0 0 0 0 55.68v18.56h-18.56a9.28 9.28 0 0 0 0 18.56h18.56a9.28 9.28 0 0 0 18.56 0 27.84 27.84 0 0 0 0-55.68v-18.56h18.56a9.28 9.28 0 0 0 0-18.56Zm9.28 64.96a9.28 9.28 0 0 1-9.28 9.28v-18.56a9.28 9.28 0 0 1 9.28 9.28m-27.84-27.84a9.28 9.28 0 0 1 0-18.56Zm64.867-55.68a9.28 9.28 0 0 0 6.589-2.69l11.97-12.065v51.875a9.28 9.28 0 0 0 18.56 0V31.522l11.972 11.971a9.28 9.28 0 0 0 13.085-13.085l-27.84-27.84a9.28 9.28 0 0 0-13.085 0l-27.84 27.84a9.28 9.28 0 0 0 6.589 15.87"/><rect width="129.077" height="85.88" x="943.348" y="-43.16" fill="none" rx="0" ry="0" transform="matrix(.74 0 0 .74 48.41 227.14)"/><path fill="#8abe53" d="M774.106 245.137h-20.08v-41.58h18.21v5.54h-11.93v11.49h9.61v5.65h-9.61v13.3h13.8Zm15.94.56q-2.37 0-4.69-.59-2.32-.6-4.13-1.47-1.81-.88-2.72-1.78l3-5.38q.62.51 1.95 1.33t3.08 1.44q1.76.63 3.51.63 2.89 0 4.84-1.36t1.95-3.96q0-2.15-1.13-3.57-1.13-1.41-2.97-2.48-1.84-1.08-3.96-2.07t-4.05-2.23q-2.2-1.47-3.84-3.91-1.64-2.43-1.64-6.27 0-3.79 1.72-6.23 1.73-2.43 4.58-3.65 2.86-1.21 6.25-1.21 2.72 0 4.64.56 1.93.57 3.23 1.36t2.03 1.42l-2.99 5.14q-.97-1.01-2.89-1.89t-4.3-.88q-2.77 0-4.41 1.27-1.64 1.28-1.64 3.77 0 2.2 1.47 3.76 1.47 1.55 3.76 2.83 2.29 1.27 4.72 2.57 2.44 1.3 4.3 3.05 1.53 1.36 2.61 3.4 1.07 2.03 1.07 4.58 0 3.85-1.78 6.5-1.78 2.66-4.78 3.99t-6.79 1.33m34.35-.56h-6.28v-36.04h-10.64v-5.54h27.66v5.54h-10.74Zm17.64.57q-1.69 0-2.88-1.16t-1.19-2.85q0-1.76 1.16-2.92t2.91-1.16q1.81 0 2.95 1.16 1.13 1.16 1.13 2.92 0 1.69-1.16 2.85t-2.92 1.16"/><rect width="168.578" height="73.45" x="923.597" y="-36.945" fill="none" rx="0" ry="0" transform="matrix(.74 0 0 .74 496.53 231.79)"/><path fill="#8abe53" d="M1211.636 247.197h-24.19l11.95-14.95q.97-1.26 2.2-3.07 1.23-1.82 2.18-3.77.94-1.96.94-3.66 0-2.66-1.43-4.11-1.42-1.45-4.28-1.45-1.98 0-3.34.87-1.35.87-2.2 2.03t-1.33 2.08l-4.5-2.42q.92-1.74 2.4-3.5 1.47-1.77 3.7-2.98 2.22-1.21 5.42-1.21 3.67 0 6.14 1.31 2.47 1.3 3.7 3.58 1.23 2.27 1.23 5.17 0 3.1-1.52 6.34t-4.28 6.63l-6.58 8.32h13.79Zm19.31.72q-3.53 0-6-1.46-2.47-1.45-4.01-3.99-1.55-2.54-2.25-5.9t-.7-7.14q0-3.91.67-7.25.68-3.34 2.18-5.83t3.99-3.9q2.49-1.4 6.12-1.4 4.84 0 7.64 2.37 2.81 2.37 4.04 6.51 1.24 4.13 1.24 9.5 0 5.18-1.28 9.39-1.29 4.21-4.12 6.65-2.83 2.45-7.52 2.45m0-4.94q2.18 0 3.56-1.16 1.37-1.16 2.12-3.14.75-1.99 1.04-4.38.3-2.4.3-4.87 0-2.7-.3-5.12-.29-2.42-1.04-4.31t-2.12-2.97q-1.38-1.09-3.56-1.09t-3.58 1.09q-1.4 1.08-2.15 2.97t-1.04 4.31-.29 5.12q0 2.47.29 4.87.29 2.39 1.04 4.35t2.15 3.15q1.4 1.18 3.58 1.18m43.25 4.22h-24.19l11.95-14.95q.97-1.26 2.2-3.07 1.24-1.82 2.18-3.77.94-1.96.94-3.66 0-2.66-1.42-4.11-1.43-1.45-4.29-1.45-1.98 0-3.33.87-1.36.87-2.21 2.03-.84 1.16-1.33 2.08l-4.5-2.42q.92-1.74 2.4-3.5 1.48-1.77 3.7-2.98 2.23-1.21 5.42-1.21 3.68 0 6.14 1.31 2.47 1.3 3.7 3.58 1.24 2.27 1.24 5.17 0 3.1-1.53 6.34-1.52 3.24-4.28 6.63l-6.58 8.32h13.79Zm27.71-.01h-5.66v-8.9h-16.25l10.2-27.87 5.03 1.89-7.69 20.9h8.71l.29-8.08h5.37v8.08h4.94v5.08h-4.94Z"/></g><path fill="transparent" stroke="transparent" d="M720 0h560v385H720z"/></g></svg>